<?xml version="1.0" encoding="UTF-8" standalone="no"?>
<svg
   enable-background="new 0 0 24 24"
   height="24px"
   viewBox="0 0 24 24"
   width="24px"
   fill="#000000"
   version="1.1"
   id="svg20"
   sodipodi:docname="ar_icon.svg"
   inkscape:version="1.1.1 (3bf5ae0d25, 2021-09-20, custom)"
   xmlns:inkscape="http://www.inkscape.org/namespaces/inkscape"
   xmlns:sodipodi="http://sodipodi.sourceforge.net/DTD/sodipodi-0.dtd"
   xmlns="http://www.w3.org/2000/svg"
   xmlns:svg="http://www.w3.org/2000/svg">
  <defs
     id="defs24" />
  <sodipodi:namedview
     id="namedview22"
     pagecolor="#ffffff"
     bordercolor="#666666"
     borderopacity="1.0"
     inkscape:pageshadow="2"
     inkscape:pageopacity="0.0"
     inkscape:pagecheckerboard="0"
     showgrid="false"
     inkscape:zoom="20.708333"
     inkscape:cx="11.975855"
     inkscape:cy="12"
     inkscape:window-width="1336"
     inkscape:window-height="670"
     inkscape:window-x="15"
     inkscape:window-y="53"
     inkscape:window-maximized="1"
     inkscape:current-layer="svg20" />
  <g
     id="g4">
    <rect
       fill="none"
       height="24"
       width="24"
       x="0"
       y="0"
       id="rect2" />
  </g>
  <g
     id="g18"
     style="fill:#6a6e73;fill-opacity:1">
    <g
       id="g16"
       style="fill:#6a6e73;fill-opacity:1">
      <path
         d="M3,4c0-0.55,0.45-1,1-1h2V1H4C2.34,1,1,2.34,1,4v2h2V4z"
         id="path6"
         style="fill:#6a6e73;fill-opacity:1" />
      <path
         d="M3,20v-2H1v2c0,1.66,1.34,3,3,3h2v-2H4C3.45,21,3,20.55,3,20z"
         id="path8"
         style="fill:#6a6e73;fill-opacity:1" />
      <path
         d="M20,1h-2v2h2c0.55,0,1,0.45,1,1v2h2V4C23,2.34,21.66,1,20,1z"
         id="path10"
         style="fill:#6a6e73;fill-opacity:1" />
      <path
         d="M21,20c0,0.55-0.45,1-1,1h-2v2h2c1.66,0,3-1.34,3-3v-2h-2V20z"
         id="path12"
         style="fill:#6a6e73;fill-opacity:1" />
      <path
         d="M19,14.87V9.13c0-0.72-0.38-1.38-1-1.73l-5-2.88c-0.31-0.18-0.65-0.27-1-0.27s-0.69,0.09-1,0.27L6,7.39 C5.38,7.75,5,8.41,5,9.13v5.74c0,0.72,0.38,1.38,1,1.73l5,2.88c0.31,0.18,0.65,0.27,1,0.27s0.69-0.09,1-0.27l5-2.88 C18.62,16.25,19,15.59,19,14.87z M11,17.17l-4-2.3v-4.63l4,2.33V17.17z M12,10.84L8.04,8.53L12,6.25l3.96,2.28L12,10.84z M17,14.87l-4,2.3v-4.6l4-2.33V14.87z"
         id="path14"
         style="fill:#6a6e73;fill-opacity:1" />
    </g>
  </g>
</svg>
