<?xml version="1.0" encoding="UTF-8" standalone="no"?>
<!-- Generator: Adobe Illustrator 24.0.1, SVG Export Plug-In . SVG Version: 6.00 Build 0)  -->

<svg
   version="1.1"
   id="svg4"
   focusable="false"
   x="0px"
   y="0px"
   viewBox="0 0 512 512"
   style="enable-background:new 0 0 512 512;"
   xml:space="preserve"
   sodipodi:docname="search_icon.svg"
   inkscape:version="1.1.1 (3bf5ae0d25, 2021-09-20, custom)"
   xmlns:inkscape="http://www.inkscape.org/namespaces/inkscape"
   xmlns:sodipodi="http://sodipodi.sourceforge.net/DTD/sodipodi-0.dtd"
   xmlns="http://www.w3.org/2000/svg"
   xmlns:svg="http://www.w3.org/2000/svg"><defs
   id="defs8" />
<style
   type="text/css"
   id="style2">
	.st0{fill:#9CA2A8;}
</style>
<sodipodi:namedview
   bordercolor="#666666"
   borderopacity="1.0"
   id="namedview6"
   inkscape:current-layer="svg4"
   inkscape:cx="-220.55385"
   inkscape:cy="222.03077"
   inkscape:pagecheckerboard="0"
   inkscape:pageopacity="0.0"
   inkscape:pageshadow="2"
   inkscape:window-height="670"
   inkscape:window-maximized="1"
   inkscape:window-width="1336"
   inkscape:window-x="15"
   inkscape:window-y="53"
   inkscape:zoom="1.015625"
   pagecolor="#ffffff"
   showgrid="false">
	</sodipodi:namedview>
<path
   id="path2"
   d="M500.3,443.7L380.6,324c27.2-40.4,40.6-90.9,33.5-144.7c-12.3-91.5-87.3-166-178.9-177.6  C99-15.5-15.5,99,1.7,235.2c11.6,91.6,86.1,166.7,177.6,178.9c53.8,7.2,104.3-6.2,144.7-33.5l119.7,119.7c15.6,15.6,41,15.6,56.6,0  S515.9,459.3,500.3,443.7z M79.1,208c0-70.6,57.4-128,128-128s128,57.4,128,128s-57.4,128-128,128S79.1,278.6,79.1,208z" />
<path
   id="path6297"
   class="st0"
   d="M460.6,509.6c-3.1-1-7.3-2.8-9.4-4s-31.5-29.9-65.3-63.6s-61.8-61.4-62.1-61.4s-4.7,2.5-9.8,5.6  c-23.3,14.1-49.3,23.2-78.2,27.4c-13.9,2-40.6,2.1-55.9,0c-44.2-5.8-85.4-26.5-118.2-59.2c-17.7-17.6-30.6-35.9-41.2-58  c-9.5-20-15.2-38.6-18.1-59.6c-2-14.4-2-42.4-0.1-56.5c11-78.6,65.3-144,140.1-169c47-15.7,97-14.1,142.8,4.4  c67.6,27.3,116.8,89.4,128,161.4c2.3,15,2.4,46.3,0,61.2c-4.4,28-15.3,57.6-29.4,79.3l-4,6.2l62.4,62.6  c72.3,72.6,68.2,67.4,68.2,85.8c0,9.2-0.3,11-2.6,16C499.4,506.2,479,515.5,460.6,509.6L460.6,509.6z M233.7,333.8  c50.5-11.5,89-50.2,99.1-99.8c9.4-46.1-6.9-94-41.8-123.3c-31-26-69-36.2-108.1-28.9c-25,4.7-47.5,16.7-66.2,35.3  c-18.6,18.6-30.1,39.6-35.6,65.5c-2.2,10.5-2.5,38.3-0.4,48.7c9.2,46.6,41.6,83.6,86.2,98.5c15.5,5.2,24,6.3,43.4,5.9  C220.3,335.5,229.6,334.7,233.7,333.8z"
   style="fill:#6a6e73;fill-opacity:1" />
</svg>
